<svg version="1.2" xmlns="http://www.w3.org/2000/svg" viewBox="0 0 236 236" width="236" height="236"><defs><linearGradient id="P" gradientUnits="userSpaceOnUse"/><linearGradient id="g1" x2="1" href="#P" gradientTransform="matrix(-77.431,-158.241,194.307,-95.079,91.98,189.625)"><stop offset=".25" stop-color="#fff" stop-opacity="0"/><stop offset="1" stop-color="#fff" stop-opacity="1"/></linearGradient><linearGradient id="g2" x2="1" href="#P" gradientTransform="matrix(-50.413,-103.027,126.509,-61.904,95.975,133.476)"><stop offset=".25" stop-color="#fff" stop-opacity="0"/><stop offset="1" stop-color="#fff" stop-opacity="1"/></linearGradient><linearGradient id="g3" x2="1" href="#P" gradientTransform="matrix(-81.393,-19.126,23.485,-99.945,115.683,150.285)"><stop offset=".25" stop-color="#fff" stop-opacity="0"/><stop offset="1" stop-color="#fff" stop-opacity="1"/></linearGradient></defs><style>.a{opacity:.1;mix-blend-mode:screen;fill:#fff}.b{fill:#968d7e}.c{fill:#9abab7}.d{opacity:.4;mix-blend-mode:screen;fill:url(#g1)}.e{opacity:.3;mix-blend-mode:screen;fill:url(#g2)}.f{opacity:.6;mix-blend-mode:screen;fill:url(#g3)}.g{opacity:.4;mix-blend-mode:multiply;fill:#968d7e}</style><path class="a" d="m235.3 117.6c0 65-52.7 117.7-117.6 117.7-65 0-117.7-52.7-117.7-117.7 0-64.9 52.7-117.6 117.7-117.6 64.9 0 117.6 52.7 117.6 117.6z"/><path class="a" d="m221.6 117.6c0 57.4-46.6 104-103.9 104-57.4 0-104-46.6-104-104 0-57.4 46.6-103.9 104-103.9 57.3 0 103.9 46.5 103.9 103.9z"/><path class="b" d="m210.1 117.6c0 51.1-41.4 92.5-92.4 92.5-51.1 0-92.5-41.4-92.5-92.5 0-51 41.4-92.4 92.5-92.4 51 0 92.4 41.4 92.4 92.4z"/><path class="c" d="m80.7 86.8c2.9-0.5 5.9-1 8.9-1.2 10.4-0.7 20.8 2 31.1 2.5 12.5 0.6 25.5-0.2 38.3-0.3 12.7-0.2 26.3 2.7 38.8-0.2 2.7-0.6 4.4-2.6 5.4-5.1-2.9-6.9-6.5-13.4-10.8-19.4-1-1.2-12.1-0.2-14-0.3-31.5-0.6-63.8-2.1-95.4 1.3-5.7 0.6-9.6 2.4-14.7 4.9-9.2 4.5-19.1 1.8-28.5-1.3q-2.1 3.3-4 6.9c9.4 2.7 18.1 8.9 27.6 12 5.8 1.9 11.5 1.1 17.3 0.2z"/><path class="b" d="m192.7 63.7q-0.1-0.3-0.3-0.5 0 0.2 0.1 0.5 0.1 0 0.2 0z"/><path class="b" d="m173.9 155.6c-3 0.4-6.3 1-9.3 1-1 0-1.6 1-2.6 1.4-9 0.3-17.6-0.4-26.6 0-1 0.3-1.6 1-2.6 1.3-2.7 0-4.7 0.3-6.7 1-1.3 0.7-2.6 0-4 0.3 0 0.4 0 1.4 0 1.4-2.3 0.3-4.3-0.4-6.6 0-0.3 0.3-0.7 1-1.3 1.3-3.4 0.3-6.3 0-9.3 0.6-6.7 1.7-13.3 1.4-20 0.4-8.3-1.3-15.9-0.4-23.9-1-0.3-0.3-1-1.3-1.3-1.3-7 0-13.6-3.7-19.9-6.7-0.7-0.3-2 0.3-2.7 0-1.6-1.6-4.2-1.3-5.5-3.8 8.9 22.6 26.5 40.9 48.7 50.7 1.6-0.4 3.2-1.1 4.6-1.7 12.3-6 23.6-14.3 37.2-16 0 0 0-1 0-1.3 2.7-0.7 5.7-0.7 7.7-1.7 4.3-2.6 8.6-3.6 11.6-5.6 6.3-4.3 12.9-3.3 19.2-3 9.1 1 17.9 4 26.8 5.5 6.1-7 11.1-15 14.9-23.6-9.5 0.1-18.9 0.7-28.4 0.8z"/><path class="c" d="m210 112.5c-0.3-4.2-160.6 3.2-168.2 3.5q-1 0.1-2 0.1c-4.9 0.3-10.1 0.8-14.6 2.6 0.1 11.6 2.4 22.6 6.4 32.8 1.3 2.5 3.9 2.2 5.5 3.8 0.7 0.3 2-0.3 2.7 0 8.8 4.2 17.7 7.5 27.4 8.8 24.9 3.2 49.7-1.2 74.3-4.7 12.5-1.8 25.4-3.9 38.1-3.7 3.8 0.1 20.7 3.7 22.7-0.9 5-11.4 7.8-23.9 7.8-37.2q0-2.6-0.1-5.1z"/><path class="d" d="m40.3 147.7c-22.6-25.1-15-68.8 17-97.7 32-28.8 76.3-31.9 99-6.8 22.6 25.1 15 68.9-17 97.7-32.1 28.9-76.4 31.9-99 6.8z"/><path class="e" d="m62.3 106.2c-14.7-16.3-9.7-44.8 11.1-63.6 20.9-18.8 49.7-20.8 64.4-4.4 14.8 16.3 9.8 44.8-11 63.6-20.9 18.8-49.7 20.7-64.5 4.4z"/><path class="f" d="m84.8 156.7c-16.1 0.7-29.8-15.2-30.8-35.6-1-20.5 11.2-37.7 27.2-38.4 16.1-0.8 29.8 15.2 30.8 35.6 1 20.4-11.2 37.6-27.2 38.4z"/><path class="g" d="m162.4 36.7c15.4 16.5 24.8 38.7 24.8 63 0 51.1-41.4 92.5-92.5 92.5-16.2 0-31.5-4.2-44.7-11.6 16.8 18.1 40.9 29.5 67.7 29.5 51 0 92.4-41.4 92.4-92.5 0-34.8-19.2-65.1-47.7-80.9z"/></svg>