<svg version="1.2" xmlns="http://www.w3.org/2000/svg" viewBox="0 0 126 126" width="126" height="126"><defs><linearGradient id="P" gradientUnits="userSpaceOnUse"/><linearGradient id="g1" x2="1" href="#P" gradientTransform="matrix(-51.827,-76.661,94.134,-63.639,53.662,101.97)"><stop offset=".25" stop-color="#fff" stop-opacity="0"/><stop offset="1" stop-color="#fff" stop-opacity="1"/></linearGradient><linearGradient id="g2" x2="1" href="#P" gradientTransform="matrix(-33.743,-49.913,61.289,-41.434,51.642,72.471)"><stop offset=".25" stop-color="#fff" stop-opacity="0"/><stop offset="1" stop-color="#fff" stop-opacity="1"/></linearGradient><linearGradient id="g3" x2="1" href="#P" gradientTransform="matrix(-43.735,-4.008,4.922,-53.703,63.12,79.776)"><stop offset=".25" stop-color="#fff" stop-opacity="0"/><stop offset="1" stop-color="#fff" stop-opacity="1"/></linearGradient></defs><style>.a{opacity:.1;mix-blend-mode:screen;fill:#fff}.b{fill:#a70b18}.c{fill:#a7512b}.d{opacity:.2;mix-blend-mode:multiply;fill:#a70b18}.e{opacity:.6;mix-blend-mode:screen;fill:url(#g1)}.f{opacity:.6;mix-blend-mode:screen;fill:url(#g2)}.g{opacity:.6;mix-blend-mode:screen;fill:url(#g3)}</style><path class="a" d="m125.1 63.2c0 34.5-27.9 62.4-62.4 62.4-34.4 0-62.4-27.9-62.4-62.4 0-34.4 28-62.4 62.4-62.4 34.5 0 62.4 28 62.4 62.4z"/><path class="a" d="m117.8 63.2c0 30.5-24.6 55.1-55.1 55.1-30.4 0-55.1-24.6-55.1-55.1 0-30.4 24.7-55.1 55.1-55.1 30.5 0 55.1 24.7 55.1 55.1z"/><path class="b" d="m111.8 63.2c0 27.2-21.9 49.1-49.1 49.1-27.1 0-49.1-21.9-49.1-49.1 0-27.1 22-49.1 49.1-49.1 27.2 0 49.1 22 49.1 49.1z"/><path class="c" d="m74.2 21.3c-1 2.5-0.9 4.8-3.2 6.4-6.6 4.7-15.8 2.3-22.6 6.5-0.4 0.3-0.8 0.6-0.7 1.1 0 0.3 0.3 0.5 0.6 0.7 3.9 2.4 8.2 5.1 12.8 5.6 5 0.5 9.8-1.9 14.6-2.8 4.6-0.9 9.7-0.8 14.5-0.6 2.7 0.1 5.5 1 8.2 0.6 2.4-0.3 3.1-2.2 5.7-2.1-5.4-8.4-13.3-15-22.6-18.9-1.7 0.6-3.7 1.2-5.3 2.4-0.4 0.3-1.6-0.2-2 1.1z"/><path class="b" d="m63.4 47.9q0 0.1-0.1 0.2 0 0.1 0 0.1 0.1-0.1 0.2-0.1-0.1-0.1-0.1-0.2z"/><path class="b" d="m64.9 46.7q-0.5 0-1 0c-0.4 0.1-0.4 0.5-0.4 0.9 0.2-0.5 1.1-0.4 1.4-0.9z"/><path class="b" d="m63.4 47.9q0-0.1 0.1-0.3-0.1 0.1-0.1 0.3z"/><path class="c" d="m62.8 50.2q-0.3-0.5-0.7-0.8c-0.7-0.5-1.5-0.4-2.3-0.4-4.2 0.3-8.4 0.5-12.5 1.5-3.2 0.7-6.4 1.9-9.7 2.3-3.2 0.4-6.3-0.3-9.5-0.4-4-0.2-8-1.2-12-1.2-0.2-0.1-0.6-0.1-0.8 0-0.2 0.2-0.3 0.5-0.4 0.7-1.7 7.5-1.7 15.4 0.1 22.8q5.2-1.9 10.7-2.9c2.9-0.5 6.9 0.2 9.3-2.2 1.4-1.5 1.9-3.9 3.9-4.8 1.1-0.6 2.4-0.7 3.6-0.7 4.2 0 8.5 1.3 12.5-0.1 4.1-1.5 10-9.2 7.8-13.8z"/><path class="c" d="m111.8 60.5q-0.3 0.2-0.6 0.4c-2.7 1.9-5.4 4-8.5 4.5-6.7 1.1-13.6 0.8-20.4 0.5-5.1-0.2-8.4 3.2-12.6 5.4-4.7 2.4-9.4 3.3-14.6 4.2-0.8 0.1-1.6 0.3-2.1 0.8-1.7 1.5 1 4.8 1.9 6 2 2.6 4.9 3.9 8 4.7 6.5 1.8 13.1 2.4 19.8 2.3 6.7-0.1 13.2-1.2 19.7 1q0.5 0.2 1.1 0.3c5.3-7.8 8.3-17.2 8.3-27.4q0-1.3 0-2.7z"/><path class="c" d="m53.9 108c2.8-3.7 4.8-7.7 7.5-11.5 2.3-3.2-3.8-3.8-5.7-3.8-4.6-0.3-8.3 1.6-12.6 2.9-3.5 1-7 0.3-10.6-0.2-1.8-0.3-6.6 0.3-7.9-1.2 6.9 8.4 16.5 14.6 27.5 17q0.3-0.4 0.7-0.8c0.6-0.6 0.6-1.7 1.1-2.4z"/><path class="d" d="m85 19.4c7.3 8.6 11.7 19.7 11.7 31.9 0 27.1-22 49.1-49.1 49.1-8 0-15.6-1.9-22.3-5.3 9 10.5 22.5 17.2 37.4 17.2 27.2 0 49.1-21.9 49.1-49.1 0-19.1-10.9-35.6-26.8-43.8z"/><g style="opacity:.7;mix-blend-mode:screen"><path class="e" d="m23.7 84c-13.6-11.5-12.8-34.8 1.7-52.1 14.6-17.4 37.4-22.2 51-10.8 13.6 11.4 12.8 34.7-1.7 52.1-14.5 17.3-37.4 22.2-51 10.8z"/><path class="f" d="m32.2 60.7c-8.9-7.4-8.4-22.6 1.1-33.9 9.4-11.3 24.3-14.4 33.2-7 8.8 7.5 8.3 22.6-1.2 33.9-9.4 11.3-24.3 14.5-33.1 7z"/><path class="g" d="m47.5 85.4c-8.3 1.5-16.6-5.8-18.6-16.3-2-10.6 3.1-20.4 11.4-22 8.2-1.5 16.6 5.7 18.6 16.3 2 10.6-3.1 20.4-11.4 22z"/></g></svg>