<svg version="1.2" xmlns="http://www.w3.org/2000/svg" viewBox="0 0 128 128" width="128" height="128"><defs><linearGradient id="P" gradientUnits="userSpaceOnUse"/><linearGradient id="g1" x2="1" href="#P" gradientTransform="matrix(-41.598,-85.011,104.387,-51.079,50.772,103.952)"><stop offset=".25" stop-color="#fff" stop-opacity="0"/><stop offset="1" stop-color="#fff" stop-opacity="1"/></linearGradient><linearGradient id="g2" x2="1" href="#P" gradientTransform="matrix(-27.084,-55.349,67.964,-33.256,52.918,73.787)"><stop offset=".25" stop-color="#fff" stop-opacity="0"/><stop offset="1" stop-color="#fff" stop-opacity="1"/></linearGradient><linearGradient id="g3" x2="1" href="#P" gradientTransform="matrix(-43.727,-10.275,12.617,-53.693,63.505,82.817)"><stop offset=".25" stop-color="#fff" stop-opacity="0"/><stop offset="1" stop-color="#fff" stop-opacity="1"/></linearGradient></defs><style>.a{opacity:.1;mix-blend-mode:screen;fill:#fff}.b{fill:#6a6f72}.c{fill:#728791}.d{opacity:.3;mix-blend-mode:multiply;fill:#6a6f72}.e{opacity:.4;mix-blend-mode:screen;fill:url(#g1)}.f{opacity:.3;mix-blend-mode:screen;fill:url(#g2)}.g{opacity:.6;mix-blend-mode:screen;fill:url(#g3)}</style><path class="a" d="m127.4 63.8c0 35.1-28.4 63.5-63.4 63.5-35 0-63.4-28.4-63.4-63.5 0-35 28.4-63.4 63.4-63.4 35 0 63.4 28.4 63.4 63.4z"/><path class="a" d="m120 63.8c0 31-25.1 56.1-56 56.1-30.9 0-56-25.1-56-56.1 0-30.9 25.1-56 56-56 30.9 0 56 25.1 56 56z"/><path class="b" d="m112.3 63.8c0 26.7-21.6 48.4-48.3 48.4-26.7 0-48.3-21.7-48.3-48.4 0-26.7 21.6-48.3 48.3-48.3 26.7 0 48.3 21.6 48.3 48.3z"/><path class="c" d="m51.2 33.1c2.2-0.9 4-2.4 4.7-4.6 0.2-0.5 0.3-1.1 0-1.6-0.3-0.3-0.6-0.4-1-0.5-4.3-1.6-10-0.9-14.4-0.1-2 0.4-3.6 1.9-5.4 2.6-1.1 0.3-4.4-0.2-4.9 0.4-2.9 2.8-5.4 5.9-7.5 9.4 0.9 0 1.7-0.1 2.5-0.3 0.3-0.1 1.4 0.1 1-0.7 0.4 0.8 8.4-2.6 9.3-2.8 4.4-1.2 8.9-0.2 13.3-1.1q1.3-0.2 2.4-0.7z"/><path class="c" d="m64.2 58.5c0.4-0.7 0.6-1.5 0.3-2.2-0.2-0.5-0.5-0.8-0.9-1.1-3-2.7-6.8-5.4-11-5.6-2.6-0.1-4.8 1.4-6.9 2.9-2.7 1.9-4.8 2.6-8.1 3.1-6.5 1-11.5 2.2-18.1 0.9-1.1-0.2-2.2-0.4-3.1-1.2q-0.7 4.2-0.7 8.5c0 4.4 0.5 8.6 1.6 12.7 0.9-0.3 1.8-0.4 2.6-1.1 0.3-0.1 0.6 0.2 0.9 0 0.3-0.1 0.4-0.4 0.5-0.4 3.2-0.1 6.5 1.1 9.7 0 2.9-0.9 4.2-3.7 6.5-5.4 3.1-2.3 7.1-2.1 10.5-3.4 2.3-0.9 13.6-3.9 16.2-7.7z"/><path class="c" d="m107.7 57.8c-1 0.2-2.1 0.3-3.1 0.3-2.5 0.1-5-0.4-7.6-0.5-5.6-0.1-11.1 1.9-16.6 3.2-6.5 1.6-13.7 2.6-17.9 7.8-0.8 0.8-1.4 1.9-1.1 3 0.3 0.9 1.1 1.6 2 2 6.2 2.9 14.2-1 20.2 2.3 1.5 0.8 2.7 2 4.3 2.7 2 0.8 4.2 0.8 6.4 1.1 4.2 0.4 8.1 3.7 11.8 5.6 0.2 0.1 0.5 0.2 0.8 0.2 0.3-0.1 0.5-0.5 0.7-0.8 4.3-8.9 5.7-19.1 4-28.8-1.1 1-2.5 1.6-3.9 1.9z"/><path class="c" d="m53.1 93.7c1.7-0.6 3.4-1.4 4.5-2.7 1.9-2.2 1.3-5.1 1.4-7.7 0-1.1 0-2.2-0.5-3.2-1.5-3-4.7-1-6.7 0.1-5.9 3.2-12.3 4.5-18.8 6-2.1 0.4-10.1 3.2-11.6 0.5 4 7.4 9.9 13.7 17 18.1 1.8 1.1 3.7-3 4.3-4 2.4-3.7 6.5-5.6 10.4-7.1z"/><path class="c" d="m80.9 90.7c-3-0.2-6.1 0.2-9.2 1.4-3.1 1.2-6.5 1.4-9.3 3.1-3.7 2.2-2.9 6.1-4.2 9.6-1 2.7-3.8 3.6-5 6.1q0 0 0 0c3.4 0.8 7.1 1.3 10.8 1.3 13.8 0 26.2-5.8 35-15.1-1.1-0.2-2.1-0.6-3.3-1.2-4.5-2.5-9.6-4.8-14.8-5.2z"/><path class="c" d="m93.1 29.5c-1.2 1-2.4 1.5-4.3 1.5-3-0.1-6.1-0.4-9.1-0.6-2.7-0.2-6.5-1-9.1-0.1-1 0.4-1.9 1.2-2.9 1.8-3 2-6.4 1.3-9.8 1.6-3.9 0.4-7.7 3.4-10.8 5.7-0.2 0.1-0.3 0.2-0.4 0.3-0.2 0.4 0 0.8 0.3 1.1 0.7 1 2 1.3 3.2 1.7 5.4 1.3 10.9 2.7 16.4 2.2 5-0.5 10.3-1.3 15.4-1.1 5.5 0.1 10.9 0.8 16.3-0.4 2.9-0.7 5.7-1.6 8.7-1.5-2.8-5.4-6.6-10.2-11.1-14.2-0.2-0.1-0.3-0.3-0.5-0.3-0.2 0-0.4 0.2-0.6 0.4-0.6 0.7-1.1 1.4-1.7 1.9z"/><path class="d" d="m86.5 21c8.1 8.7 13 20.3 13 33.1 0 26.7-21.6 48.3-48.3 48.3-8.1 0-15.8-2-22.5-5.6 8.8 9.5 21.4 15.4 35.3 15.4 26.7 0 48.3-21.7 48.3-48.4 0-18.6-10.4-34.7-25.8-42.8z"/><path class="e" d="m23 81.4c-12.1-13.4-8.1-36.9 9.1-52.4 17.2-15.5 41-17.2 53.2-3.7 12.2 13.5 8.1 37-9.1 52.5-17.2 15.5-41 17.1-53.2 3.6z"/><path class="f" d="m34.8 59.1c-7.9-8.7-5.2-24 6-34.1 11.2-10.1 26.7-11.2 34.6-2.4 7.9 8.8 5.3 24.1-5.9 34.2-11.2 10.1-26.7 11.1-34.7 2.3z"/><path class="g" d="m46.9 86.2c-8.6 0.5-16-8.1-16.5-19.1-0.6-11 6-20.2 14.6-20.6 8.6-0.4 16 8.2 16.5 19.1 0.6 11-6 20.2-14.6 20.6z"/></svg>