<svg version="1.2" xmlns="http://www.w3.org/2000/svg" viewBox="0 0 176 175" width="176" height="175"><defs><linearGradient id="P" gradientUnits="userSpaceOnUse"/><linearGradient id="g1" x2="1" href="#P" gradientTransform="matrix(-59.788,-122.184,150.033,-73.414,69.879,146.142)"><stop offset=".25" stop-color="#fff" stop-opacity="0"/><stop offset="1" stop-color="#fff" stop-opacity="1"/></linearGradient><linearGradient id="g2" x2="1" href="#P" gradientTransform="matrix(-38.926,-79.552,97.683,-47.799,72.964,102.786)"><stop offset=".25" stop-color="#fff" stop-opacity="0"/><stop offset="1" stop-color="#fff" stop-opacity="1"/></linearGradient><linearGradient id="g3" x2="1" href="#P" gradientTransform="matrix(-62.847,-14.768,18.134,-77.172,88.181,115.765)"><stop offset=".25" stop-color="#fff" stop-opacity="0"/><stop offset="1" stop-color="#fff" stop-opacity="1"/></linearGradient></defs><style>.a{opacity:.1;mix-blend-mode:screen;fill:#fff}.b{fill:#c7cae9}.c{fill:#9898ca}.d{opacity:.5;mix-blend-mode:multiply;fill:#c7cae9}.e{opacity:.4;mix-blend-mode:screen;fill:url(#g1)}.f{opacity:.3;mix-blend-mode:screen;fill:url(#g2)}.g{opacity:.6;mix-blend-mode:screen;fill:url(#g3)}</style><path class="a" d="m175.7 87.6c0 48.3-39.2 87.5-87.5 87.5-48.3 0-87.5-39.2-87.5-87.5 0-48.3 39.2-87.4 87.5-87.4 48.3 0 87.5 39.1 87.5 87.4z"/><path class="a" d="m165.5 87.6c0 42.7-34.6 77.3-77.3 77.3-42.7 0-77.2-34.6-77.2-77.3 0-42.6 34.5-77.2 77.2-77.2 42.7 0 77.3 34.6 77.3 77.2z"/><path class="b" d="m156.5 87.7c0 37.3-30.3 67.6-67.6 67.6-37.4 0-67.6-30.3-67.6-67.6 0-37.4 30.2-67.6 67.6-67.6 37.3 0 67.6 30.2 67.6 67.6z"/><path class="c" d="m51.7 74.8q23.3-0.6 46.6-1.2c2.9 0 5.9-0.1 8.6-1.4 2.6-1.2 4.8-4 4.5-6.9-0.4-3.2-3.7-5.4-7-5.8-3.2-0.5-6.5 0.4-9.7 0.7-13.3 1.4-26.9-5.3-39.8-1.9-4.6 1.2-9 3.8-13.8 4-3.9 0.3-9.5-1.9-13.2-0.1-4.2 2-4.8 9.1-5.4 13.4q14.6-0.4 29.2-0.8z"/><path class="c" d="m54.6 87.1c-3.9-0.2-6.6-0.4-7.5-0.4-1.2-0.1-2.9 0.3-2.9 1.5 0 0.5 0.3 1 0.7 1.4 1.8 1.9 4.4 3.2 6.3 5 3 2.9 4.5 7.1 7.4 10 8.4 8.6 22.5 4.1 33 4.6 5.2 0.2 11.2 3.4 16.3 2.1q0 0 0 0c3.9-0.9 6.6-4.6 10.3-6.2 9.2-4.2 19.9-2.1 29.4-0.6 2.1 0.3 3.8 2.4 5.7 3.6 2.1-6.4 3.2-13.2 3.2-20.3 0 7.6-77 0.7-82.4 0.4q-9.8-0.5-19.5-1.1z"/><path class="c" d="m77.7 134.8c4.4-0.5 7.6-1.4 7.6-3.4 0-0.6-0.3-1.2-0.5-1.7-1.6-3.4-3.1-9.6-7.7-9.9-8.3-0.5-16.6 0.2-24.9-0.1-4.1-0.2-8.1-1.1-12.2-1.6-3.3-0.4-7.5 0.3-10.6-1.3q-1.1-0.5-1.9-0.9c3.8 8.3 9.2 15.7 15.9 21.8-0.3-0.3 9.8-2.8 10.7-2.8 2.7-0.3 15.3 0.8 23.6-0.1z"/><path class="c" d="m98.6 136.7c-3.1 1.7-5.6 4.6-9.1 5.6-4.6 1.4-11.3 0.1-13.8 5.5-0.4 0.7-1.7 5.8-0.3 6.1 4.4 0.9 8.9 1.4 13.5 1.4 18.3 0 34.9-7.3 47-19.1-3.6 3.5-12.7 1.2-17 0.5-6.3-0.9-14.3-3.1-20.3 0z"/><path class="c" d="m70.1 30.5c3 2.7 6 6.5 9.5 8.6 7 4 15.1 4.6 23 4.4 4.6-0.2 9.1 0.4 13.6-0.3 4-0.6 7.9-2.6 12-2.6 3.6 0.1 6.9 2.2 10.2 3.3q1.6 0.8 3.2 1.4c-12.4-15.4-31.4-25.2-52.7-25.2-8.5 0-17.4 1.4-25.2 4.9 0.3-0.2 3.2 2.4 6.4 5.5z"/><path class="d" d="m129.8 33.8c9 11.5 14.4 26 14.4 41.7 0 37.4-30.3 67.7-67.6 67.7-15.4 0-29.6-5.2-40.9-13.8 12.4 15.7 31.6 25.9 53.2 25.9 37.3 0 67.6-30.3 67.6-67.6 0-22-10.5-41.5-26.7-53.9z"/><path class="e" d="m30 113.8c-17.5-19.4-11.6-53.2 13.1-75.4 24.7-22.3 58.9-24.7 76.4-5.3 17.5 19.4 11.6 53.2-13.1 75.5-24.7 22.2-58.9 24.6-76.4 5.2z"/><path class="f" d="m47 81.7c-11.4-12.6-7.6-34.6 8.5-49.1 16.1-14.5 38.4-16 49.8-3.4 11.4 12.6 7.5 34.6-8.6 49.1-16.1 14.5-38.3 16-49.7 3.4z"/><path class="g" d="m64.3 120.7c-12.4 0.6-23-11.7-23.8-27.5-0.7-15.8 8.7-29 21.1-29.6 12.4-0.6 23 11.7 23.7 27.5 0.8 15.7-8.6 29-21 29.6z"/></svg>