<svg version="1.2" xmlns="http://www.w3.org/2000/svg" viewBox="0 0 130 130" width="130" height="130"><defs><linearGradient id="P" gradientUnits="userSpaceOnUse"/><linearGradient id="g1" x2="1" href="#P" gradientTransform="matrix(-36.382,-73.431,90.167,-44.674,51.653,94.336)"><stop offset=".25" stop-color="#fff" stop-opacity="0"/><stop offset="1" stop-color="#fff" stop-opacity="1"/></linearGradient><linearGradient id="g2" x2="1" href="#P" gradientTransform="matrix(-23.687,-47.809,58.706,-29.086,53.382,68.208)"><stop offset=".25" stop-color="#fff" stop-opacity="0"/><stop offset="1" stop-color="#fff" stop-opacity="1"/></linearGradient><linearGradient id="g3" x2="1" href="#P" gradientTransform="matrix(-37.906,-8.71,10.695,-46.545,62.588,75.982)"><stop offset=".25" stop-color="#fff" stop-opacity="0"/><stop offset="1" stop-color="#fff" stop-opacity="1"/></linearGradient></defs><style>.a{opacity:.1;mix-blend-mode:screen;fill:#fff}.b{fill:#7b7e8d}.c{fill:#9e939b}.d{opacity:.3;mix-blend-mode:multiply;fill:#7b7e8d}.e{opacity:.6;mix-blend-mode:screen;fill:url(#g1)}.f{opacity:.3;mix-blend-mode:screen;fill:url(#g2)}.g{opacity:.6;mix-blend-mode:screen;fill:url(#g3)}</style><path class="a" d="m129.8 64.7c0 35.7-28.9 64.6-64.6 64.6-35.7 0-64.6-28.9-64.6-64.6 0-35.7 28.9-64.6 64.6-64.6 35.7 0 64.6 28.9 64.6 64.6z"/><path class="a" d="m122.3 64.7c0 31.6-25.6 57.1-57.1 57.1-31.5 0-57.1-25.5-57.1-57.1 0-31.5 25.6-57 57.1-57 31.5 0 57.1 25.5 57.1 57z"/><path class="b" d="m112 64.7c0 25.9-20.9 46.9-46.8 46.9-25.9 0-46.8-21-46.8-46.9 0-25.8 20.9-46.8 46.8-46.8 25.9 0 46.8 21 46.8 46.8z"/><path class="c" d="m63.7 70c-1.9-1.2-4.3-0.1-6.2 0.5q-4.2 1.5-8.6 2.5c-7.3 1.6-15.2 2.5-22.5 0.8-0.8-0.1-7.4-1.4-7.3-1 0.9 5.2 2.6 10.1 5.1 14.6 1.1 1.9 7.6 0.7 9.2 0.5 10.2-0.7 23.1 0.6 27.7-10.7 0.3-0.7 2.8-7.1 2.6-7.2z"/><path class="c" d="m90 50.9q-0.8-0.1-1.7-0.2c-6.2-0.5-12-1.8-17.9-4-4-1.4-4.4 4.6-3.2 7 1.5 3.5 5.6 7 9.1 8.4 5.2 2 10.9 0.6 16.4 0.4 5.7-0.2 11.4-0.4 17.1 0 0.2 0 2.2 0 2.2 0.2-0.2-4.8-1.2-9.5-2.7-13.8-0.8 0.6-1.3 1.4-2 1.5-5.7 0.8-11.5 0.9-17.3 0.5z"/><path class="c" d="m91.8 91.6c-3.3 0.2-6.6 0.3-9.8 0.5-5.7 0.5-12.9 0.4-16.4-4.8-1.5-2.2-2.3 0.1-2.2 1.8 0.2 2.2 1.6 5 2.8 6.8 2.2 3.2 5.6 3 8.3 5.2 2.5 2.1 0.6 4.6 2 6.9q0.7 0.9 1.2 1.9c11.6-3.2 21.3-10.8 27.4-20.7q-0.6 0-1.1 0.2c-3.9 1.4-8 1.9-12.2 2.2z"/><path class="c" d="m24.3 50.6c1.6-0.3 3.1-0.6 3.4-0.7 5.6-2.5 11.2-1.2 17-1.9 8.3-0.9 15.7-7.9 19-15.3-2.6 0.9-5.3 1.8-7.8 3-3.2 1.5-5.6 3.5-9.2 4-6.4 0.9-13.1 0.3-18.2-4-3.7 4.6-6.5 10-8.2 15.7 0 0 2.1-0.4 4-0.8z"/><path class="d" d="m94.7 28.4c3.9 6.8 6.1 14.7 6.1 23.1 0 25.9-21 46.8-46.8 46.8-11.2 0-21.5-3.9-29.5-10.4 8 14.1 23.2 23.7 40.7 23.7 25.9 0 46.8-21 46.8-46.9 0-14.6-6.7-27.7-17.3-36.3z"/><path class="e" d="m27.5 75c-10.6-11.7-7.1-32 7.7-45.5 14.8-13.5 35.4-15 46-3.4 10.6 11.6 7.2 32-7.7 45.5-14.8 13.5-35.4 15-46 3.4z"/><path class="f" d="m37.7 55.6c-6.9-7.6-4.7-20.8 5-29.6 9.6-8.8 23-9.8 29.9-2.2 6.9 7.5 4.7 20.8-5 29.6-9.6 8.8-23 9.8-29.9 2.2z"/><path class="g" d="m48.2 79c-7.4 0.4-13.9-7-14.4-16.5-0.5-9.5 5.2-17.5 12.6-17.9 7.5-0.4 13.9 7 14.4 16.5 0.5 9.5-5.1 17.5-12.6 17.9z"/></svg>