<svg version="1.2" xmlns="http://www.w3.org/2000/svg" viewBox="0 0 268 197" width="268" height="197"><defs><linearGradient id="P" gradientUnits="userSpaceOnUse"/><linearGradient id="g1" x2="1" href="#P" gradientTransform="matrix(-94.866,125.411,-110.049,-83.247,239.105,62.562)"><stop offset=".25" stop-color="#fff" stop-opacity="0"/><stop offset="1" stop-color="#fff" stop-opacity="1"/></linearGradient><linearGradient id="g2" x2="1" href="#P" gradientTransform="matrix(-0.096,.127,-0.002,-0.001,74.874,54.279)"><stop offset=".25" stop-color="#fff" stop-opacity="0"/><stop offset="1" stop-color="#fff" stop-opacity="1"/></linearGradient><linearGradient id="g3" x2="1" href="#P" gradientTransform="matrix(-14.855,-100.301,123.162,-18.241,116.159,110.546)"><stop offset=".25" stop-color="#fff" stop-opacity="0"/><stop offset="1" stop-color="#fff" stop-opacity="1"/></linearGradient><linearGradient id="g4" x2="1" href="#P" gradientTransform="matrix(-63.439,-37.926,46.571,-77.899,128.256,129.987)"><stop offset=".25" stop-color="#fff" stop-opacity="0"/><stop offset="1" stop-color="#fff" stop-opacity="1"/></linearGradient></defs><style>.a{opacity:.1;mix-blend-mode:screen;fill:#fff}.b{fill:#d8b98b}.c{fill:#bfbd54}.d{opacity:.4;mix-blend-mode:screen;fill:url(#g1)}.e{opacity:.4;mix-blend-mode:screen;fill:url(#g2)}.f{opacity:.3;mix-blend-mode:screen;fill:url(#g3)}.g{opacity:.6;mix-blend-mode:screen;fill:url(#g4)}.h{opacity:.4;mix-blend-mode:multiply;fill:#bfbd54}.i{opacity:.5;fill:#fff}</style><path class="a" d="m238.3 98.8c0 54.2-43.9 98-98 98-54.1 0-98-43.8-98-98 0-54.1 43.9-98 98-98 54.1 0 98 43.9 98 98z"/><path class="a" d="m226.9 98.8c0 47.8-38.8 86.6-86.6 86.6-47.8 0-86.5-38.8-86.5-86.6 0-47.8 38.7-86.5 86.5-86.5 47.8 0 86.6 38.7 86.6 86.5z"/><path class="b" d="m127.1 166.2c-9.2 0.9-17.6-2.7-25.7-6.3-5.5-2.2-11.1-4.5-16.9-6.6 8.3 8.3 18.7 14.8 30.7 18.7 9.3 2.9 18.7 4 27.9 3.4-1.9-1.8-3.9-3.6-5.7-5.6-2.7-2.8-7-4.1-10.3-3.6z"/><path class="c" d="m174.9 166.4q-4.6-1.5-9-3.4c-2.8-1.2-5.1-3.9-7.2-6.4-16.4-20.6-43.7-17-67.3-18.7-6.3-0.5-20.6-2.7-23.8-9.3q2.9 6.1 6.5 11.9c2.1 3.4 4.3 6.7 7.2 9.4 9.8 9.1 29.1 13.8 42 15.8 9.6 1.5 12.7 3 19.8 9.7 11.2-0.6 22-3.8 31.8-9z"/><path class="c" d="m161.8 25.7c-24.1-7.7-49.1-2.8-68.2 10.9q0 0.2-0.1 0.4 0.1-0.2 0.1-0.4c-12.9 9.3-23 22.7-28.2 39-12.8 40.4 9.5 83.5 49.8 96.4 40.4 12.8 83.6-9.5 96.4-49.9 12.9-40.4-9.4-83.5-49.8-96.4z"/><path class="b" d="m129.5 25.9c7.7 2.5 15.7 5.3 23.7 7.2 2 0.7 3.8-1 6-0.9 5 0.3 9.5 2.1 13.1 4.8 0.8 0.6 2.4 0.4 2.8 1.2 2.9 4.7 6.9 8.2 11.8 10.8 4 2 8.4 3.3 12.7 3.4-9.2-12.2-22.2-21.7-37.8-26.7-11.5-3.7-23.2-4.5-34.4-2.8q0 0.1 0.1 0.2c1.2 1.3 2.3 1.6 2 2.8z"/><path class="c" d="m199.6 52.4c-0.8-1.1-11.6-3.1-14.1-4.7-5-3.2-8.8-8-14-10.8-4.9-2.6-11-3.2-16.4-4.3-1.9-0.3-26.3-4.7-25.6-6.7 0.3-1.2-0.8-1.5-2-2.8q-0.1-0.1-0.1-0.2c-12.2 1.8-23.8 6.5-33.8 13.7q0 0.2-0.1 0.4 0.1-0.2 0.1-0.4-1.7 1.3-3.4 2.6 0.9 0.5 1.7 0.8c18.6 7.4 38.1 11.5 57.3 16.7 20.9 5.7 41.3 13.4 61.9 20 0.3 0.1 0.1 0.9 0.2 1.3q0.6 0.4 1.2 0.7c-2.6-9.6-7-18.5-12.9-26.3z"/><path class="b" d="m211.3 78c-0.1-0.4 0.1-1.2-0.2-1.3-26.8-7.6-53.2-18.5-80.5-24.4-13.5-2.7-26.1-6.7-38.7-12.3q-0.8-0.3-1.7-0.8c-9.6 7.8-17.4 17.9-22.4 29.9 1.2-0.2 2.4-0.4 3.7-0.7 4.2-1.5 7.8-4.8 11.9-4.4 12.8 1 22.8 8.2 33.9 14.1 7.4 3.9 15.2 5.9 23.6 5.5 26.9-1.3 48.5 14.7 74.2 19.5 0.5-8.3-0.4-16.6-2.6-24.4q-0.6-0.3-1.2-0.7z"/><path class="b" d="m171 139.9c-10.2-7.2-19.9-16.2-22.4-19-7.5-8.3-15.6-17.9-28-16.4-10.8 1.3-20.2 8.3-31.5 7.1-9.2-0.9-18.5-5.1-27.2-8 0.5 8.5 2.5 16.7 5.7 24.5q0.3 0.1 0.7 0.3c0.2 0.4 0 1 0.2 1.3 0.7 0.6 1.6 0.9 2.3 1.7 1.9 1.9 5.3 2.4 8 3.8 13.9 7.7 25 0.9 39.2 1.9 14.4 1 31.2 8.5 40.7 19.5 2.1 2.5 4.4 5.2 7.2 6.4q4.4 1.9 9 3.4c8.5-4.6 16.3-10.9 22.6-18.5-4.4 5.2-15.7-0.4-26.5-8z"/><path class="d" d="m193.3 50.5c-12.3-27.2-50.4-36.5-85.1-20.8q-6.6 3-12.4 6.9 0 0.1-0.1 0.3 0.1-0.2 0.1-0.3c-7.5 4.9-13.9 10.9-18.9 17.4q0 0-0.1 0.1-1.6 2.1-3.1 4.3-0.5 1-0.7 2 0.2-1 0.7-2c-10.2 15.5-13.1 33.5-6 49.1 12.3 27.2 50.4 36.5 85.1 20.8 34.7-15.8 52.9-50.6 40.5-77.8z"/><path class="e" d="m74.6 54.3q0.1-0.1 0.1-0.2 0 0.1-0.1 0.2z"/><path class="f" d="m95.1 78.6c-8-17.8 3.8-40.4 26.4-50.7 22.6-10.2 47.4-4.1 55.5 13.6 8 17.7-3.8 40.4-26.4 50.6-22.6 10.2-47.4 4.2-55.5-13.5z"/><path class="g" d="m100.5 127.1c-13.7-3.7-21-20.8-16.4-38.3 4.7-17.4 19.6-28.6 33.3-25 13.7 3.7 21 20.8 16.3 38.2-4.6 17.5-19.5 28.7-33.2 25.1z"/><path class="h" d="m205.3 61.1c3 13 2.7 26.8-1.7 40.4-12.8 40.4-56 62.7-96.3 49.9-19.3-6.2-34.4-19.2-43.6-35.5 5.9 25.6 24.7 47.5 51.5 56.1 40.4 12.8 83.6-9.5 96.4-49.9 6.7-21.2 3.8-43.1-6.3-61z"/><path class="i" d="m215.2 101.3c-0.1 0.5 0 1.1-0.1 1.6 24 19.3 37.1 36.7 32.1 46.2-8.3 16-64.6 3.3-125.6-28.6-61-31.8-103.6-70.6-95.2-86.7 5.5-10.6 31.9-8.7 66.8 3.1 0.3-0.2 0.6-0.5 0.9-0.6-47.9-17.9-85.6-22.2-92.9-8.2-10 19.3 41.2 65.9 114.3 104.1 73.2 38.2 140.7 53.5 150.8 34.2 6.8-13-14.4-38.3-51.1-65.1z"/></svg>