<svg version="1.2" xmlns="http://www.w3.org/2000/svg" viewBox="0 0 203 203" width="203" height="203"><defs><linearGradient id="P" gradientUnits="userSpaceOnUse"/><linearGradient id="g1" x2="1" href="#P" gradientTransform="matrix(-87.948,-130.091,159.742,-107.993,89.486,169.822)"><stop offset=".25" stop-color="#fff" stop-opacity="0"/><stop offset="1" stop-color="#fff" stop-opacity="1"/></linearGradient><linearGradient id="g2" x2="1" href="#P" gradientTransform="matrix(-57.261,-84.7,104.005,-70.312,86.058,119.764)"><stop offset=".25" stop-color="#fff" stop-opacity="0"/><stop offset="1" stop-color="#fff" stop-opacity="1"/></linearGradient><linearGradient id="g3" x2="1" href="#P" gradientTransform="matrix(-74.216,-6.802,8.352,-91.132,105.536,132.16)"><stop offset=".25" stop-color="#fff" stop-opacity="0"/><stop offset="1" stop-color="#fff" stop-opacity="1"/></linearGradient></defs><style>.a{opacity:.1;mix-blend-mode:screen;fill:#fff}.b{fill:#1aa8e6}.c{fill:#9aca28}.d{opacity:.4;mix-blend-mode:multiply;fill:#1aa8e6}.e{opacity:.6;mix-blend-mode:screen;fill:url(#g1)}.f{opacity:.6;mix-blend-mode:screen;fill:url(#g2)}.g{opacity:.6;mix-blend-mode:screen;fill:url(#g3)}</style><path class="a" d="m202.8 101.2c0 55.8-45.2 101-101 101-55.8 0-101-45.2-101-101 0-55.8 45.2-101 101-101 55.8 0 101 45.2 101 101z"/><path class="a" d="m191 101.2c0 49.3-39.9 89.2-89.2 89.2-49.2 0-89.2-39.9-89.2-89.2 0-49.3 40-89.2 89.2-89.2 49.3 0 89.2 39.9 89.2 89.2z"/><path class="b" d="m181.4 101.3c0 43.6-35.3 79-78.9 79-43.5 0-78.9-35.4-78.9-79 0-43.5 35.4-78.9 78.9-78.9 43.6 0 78.9 35.4 78.9 78.9z"/><path class="c" d="m48.4 141.7c-2.9-5.3-4.7-11.1-6.2-16.9-1-3.7-1.1-11.5-5-13.5-3-1.5-7.4 0.6-10.8-1.3-0.7-0.5-1.6-0.7-2.4-1.1 2 21 12.2 39.6 27.4 52.6-0.8-1.3-1.5-2.7-1.9-4.1-1.1-5.4 1.4-11-1.1-15.7z"/><path class="c" d="m104 31.9c-1.5 2.7-1.5 6.5-2.3 9.4-1 3.8-5.4 12.2-2.1 15.7 0.9 1.1 2.4 1.4 3.8 1.5 3.9 0.2 7-1.9 10.5-2.9 5.2-1.5 11-1 15.8-3.7 3.9-2.1 7-5.5 11.7-5.3 2.5 0.1 3.6-1.3 5.7-2 2.1-0.7 4.2-1.4 6.1-2.8 0.3-0.1 0.7-0.1 1-0.1-7.7-6.7-16.7-11.9-26.7-15.2-2.8-0.9-5.6 1.7-8.1 2.4-4.1 1-8.4 0.1-12.5 1.1-1.4 0.4-2.3 1-2.9 1.9z"/><path class="c" d="m119.6 102.6q0.3-0.7 0.5-1.5c0.6-2.2 0.4-4.8-1.4-6.2-0.5-0.4-4.5 0.5-5.7 0.5-2.6 0.2-5.1 0.7-7.7 1.1-3.6 0.5-7.3 1.1-10.9 1.9-2.1 0.5-14.7 4.5-15.3 0.4-0.9-6.1 0.8-17-4-21.8-0.9-0.9-2.1-1.7-2.3-3-0.8-6.4 4.6-12.2 7.6-17.4 4.3-7.3 8.4-17.2 6.6-25.8-0.5-2.3-1.8-4.9-4.1-5.3-1.1-0.2-2.2 0.1-3.2 0.4-20.7 6.3-38.5 21.5-48.1 40.9-0.4 0.9-0.9 2-0.6 3 4.4 14 30.8 7.2 38.7 17.5 3 4 2.6 8.9 2 13.6-0.5 3.3 0.1 8.7-1.4 11.9-2.3 4.9-8.5 10.8-6.5 16.5 0.8 2.2 2.6 4 4.5 5.5 6.5 4.8 15.2 6.6 20.4 12.8 2.3 2.7 3.9 6.3 7.3 7.9 2 0.9 4.6 0.7 6.1-1 1.7-1.8 1.3-4.7 0.8-7.2-1.5-7.8-3.6-15.7-4.6-23.5-0.7-5.4 0.4-10.8 5.8-13.3 5.7-2.6 12.8-0.7 15.5-7.9z"/><path class="c" d="m157.6 133.2c-3.5-1.5-8.7-1.2-12.3-1-3.8 0.1-7.3 1.4-9.7 4.5-3.2 4.3-5.6 9.6-12 8 0.5 0.1 0.8 0.2 1.2 0-1.9-1.2-4.1-2-6.1-2.9-2.2-1-4 0-4.8 2.3-0.3 1.1 0 2.5 1.1 2.9 0.4 0.2 0.8 0.2 1.2 0.2 2.8 0.3 5.5 1.8 7.1 4.2 1.1 1.4 1.7 3.3 3.2 4.4 2.9 2.2 8.1 0.5 11.4-0.1 1.7-0.3 3.5-0.7 4.6-2.1 0.6-0.8 0.8-1.8 1.3-2.6 2.6-4.6 9.4-3.2 13.6-3.7 0.8 0 1.6-0.2 2.3-0.6 0.6-0.5 1-1.3 1.2-2.2 0.5-2.2 0.3-5.3-0.2-7.5-0.4-1.5-1.3-2.9-2.7-3.7q-0.2 0-0.4-0.1z"/><path class="c" d="m164.9 53q0 0 0 0c-0.7 0.3-1.9 0.7-3.8 1.9-0.7 0.7-2.3-0.2-3.5 0.5-4.3 2.6-11.3 1-14.7 5-4.5 5.2 1.1 14.9-8.6 17-5 1.2-10.6-1.3-15.4 1.1-1.2 0.6-2 2.1-1.4 3.2 0.3 0.6 1 1 1.5 1.4 4.9 2.9 8.7 7.4 10.8 12.7 2.6 6.6 0.9 12.4 1.1 19.2 0.1 6.9 4.6 9.6 10.5 6.3 4.9-2.8 10.8-4.1 16.6-4.6 6.4-0.6 12.8-2 19.2-2 0.7 0 1.2-1.2 1.9-1.7 0.5-0.1 1 0 1.5 0q0.8-5.7 0.8-11.7c0-18.2-6.1-34.9-16.5-48.3z"/><path class="d" d="m141 32.4c11.2 13.7 18 31.2 18 50.3 0 43.5-35.3 78.9-78.9 78.9-13.9 0-27-3.7-38.4-10 14.5 17.5 36.4 28.7 60.8 28.7 43.6 0 78.9-35.4 78.9-79 0-29.6-16.3-55.4-40.4-68.9z"/><path class="e" d="m38.7 139.2c-23.1-19.3-21.8-58.9 2.9-88.3 24.7-29.4 63.4-37.6 86.5-18.3 23.1 19.4 21.8 59-2.9 88.4-24.7 29.4-63.4 37.6-86.5 18.2z"/><path class="f" d="m53 99.9c-15-12.6-14.2-38.4 1.9-57.6 16.1-19.1 41.3-24.5 56.3-11.9 15 12.7 14.2 38.4-1.9 57.6-16.1 19.1-41.3 24.5-56.3 11.9z"/><path class="g" d="m79 141.6c-14 2.7-28.1-9.7-31.5-27.6-3.4-17.9 5.2-34.6 19.3-37.3 14-2.6 28.1 9.8 31.5 27.7 3.4 17.9-5.2 34.6-19.3 37.2z"/></svg>