<svg version="1.2" xmlns="http://www.w3.org/2000/svg" viewBox="0 0 184 184" width="184" height="184"><defs><linearGradient id="P" gradientUnits="userSpaceOnUse"/><linearGradient id="g1" x2="1" href="#P" gradientTransform="matrix(-61.306,-125.287,153.843,-75.279,72.115,149.236)"><stop offset=".25" stop-color="#fff" stop-opacity="0"/><stop offset="1" stop-color="#fff" stop-opacity="1"/></linearGradient><linearGradient id="g2" x2="1" href="#P" gradientTransform="matrix(-39.915,-81.572,100.164,-49.012,75.278,104.78)"><stop offset=".25" stop-color="#fff" stop-opacity="0"/><stop offset="1" stop-color="#fff" stop-opacity="1"/></linearGradient><linearGradient id="g3" x2="1" href="#P" gradientTransform="matrix(-64.443,-15.143,18.594,-79.131,90.882,118.088)"><stop offset=".25" stop-color="#fff" stop-opacity="0"/><stop offset="1" stop-color="#fff" stop-opacity="1"/></linearGradient></defs><style>.a{opacity:.1;mix-blend-mode:screen;fill:#fff}.b{fill:#4a96d9}.c{fill:#8fb6d9}.d{opacity:.4;mix-blend-mode:multiply;fill:#4a96d9}.e{opacity:.4;mix-blend-mode:screen;fill:url(#g1)}.f{opacity:.3;mix-blend-mode:screen;fill:url(#g2)}.g{opacity:.6;mix-blend-mode:screen;fill:url(#g3)}</style><path class="a" d="m183.9 92c0 50.7-41.1 91.7-91.7 91.7-50.6 0-91.7-41-91.7-91.7 0-50.6 41.1-91.7 91.7-91.7 50.6 0 91.7 41.1 91.7 91.7z"/><path class="a" d="m173.2 92c0 44.7-36.3 81-81 81-44.7 0-81-36.3-81-81 0-44.7 36.3-81 81-81 44.7 0 81 36.3 81 81z"/><path class="b" d="m163.5 93c0 39.3-31.9 71.2-71.2 71.2-39.3 0-71.2-31.9-71.2-71.2 0-39.4 31.9-71.2 71.2-71.2 39.3 0 71.2 31.8 71.2 71.2z"/><path class="c" d="m102.5 81.3c0.4-1.1 0.5-2.3 0.5-3.5 0.2-3.6 0.2-7.2-0.7-10.6-2-7.6-7.5-11.3-15-12.2-8.7-1-17.7 1-26.2 3.7-4 1.3-7.9 3.3-12 4.1-4.8 1-9.4-0.5-14.1-0.5-2.2 0-4.5-0.1-6.7-0.5-4.6 9.4-7.2 20-7.2 31.2 0 18.1 6.7 34.6 17.9 47.1 1-1.8 2.3-3.4 3.7-4.9 7.7-7.4 19.5-11.9 21-23.1 0.6-4.8-0.3-9.8 2.1-13.9 2.4-4.5 7.1-7.7 11.8-8.6 6.3-0.8 12.5-2.2 18.6-3.6 2.4-0.6 4.8-1.6 5.9-3.7q0.3-0.5 0.4-1z"/><path class="c" d="m158.2 65.9c-1.5 1.6-2.8 3.2-4.8 4.7-0.3 0.6-0.3 1.8-0.6 2.4-2 4.1-7 9.2-9.9 13.1-12.5 17.4-41.9 6.1-51.6 26.7-0.2 0.3-0.3 0.7-0.2 1.1 0.1 0.4 0.4 0.6 0.7 0.8 5 3.4 10.9 2.7 16.6 3.1 8.6 0.6 15.7 4.2 23.1 8.1 1.7 0.9 17.1 10.8 15.1 13.1 10.5-12.4 16.9-28.5 16.9-46 0-9.6-1.9-18.8-5.3-27.1z"/><path class="d" d="m126.2 30.3c12.1 12.8 19.5 30.1 19.5 49.1 0 39.3-31.8 71.2-71.2 71.2-12.2 0-23.8-3.1-33.8-8.6 12.9 13.7 31.3 22.2 51.6 22.2 39.3 0 71.2-31.9 71.2-71.2 0-27.1-15.1-50.6-37.3-62.7z"/><path class="e" d="m31.2 116.1c-17.9-19.9-11.9-54.5 13.5-77.4 25.3-22.8 60.4-25.2 78.3-5.4 17.9 19.9 11.9 54.5-13.5 77.4-25.3 22.8-60.4 25.2-78.3 5.4z"/><path class="f" d="m48.6 83.2c-11.6-13-7.7-35.5 8.8-50.4 16.5-14.9 39.3-16.4 51-3.5 11.7 13 7.8 35.5-8.8 50.4-16.5 14.9-39.3 16.4-51 3.5z"/><path class="g" d="m66.4 123.1c-12.7 0.6-23.6-12-24.4-28.2-0.7-16.1 8.9-29.7 21.6-30.3 12.7-0.6 23.6 12 24.4 28.2 0.7 16.1-8.9 29.7-21.6 30.3z"/></svg>