<svg version="1.2" xmlns="http://www.w3.org/2000/svg" viewBox="0 0 172 172" width="172" height="172"><defs><linearGradient id="P" gradientUnits="userSpaceOnUse"/><linearGradient id="g1" x2="1" href="#P" gradientTransform="matrix(-57.559,-117.63,144.441,-70.678,68.896,141.277)"><stop offset=".25" stop-color="#fff" stop-opacity="0"/><stop offset="1" stop-color="#fff" stop-opacity="1"/></linearGradient><linearGradient id="g2" x2="1" href="#P" gradientTransform="matrix(-37.475,-76.586,94.042,-46.017,71.866,99.538)"><stop offset=".25" stop-color="#fff" stop-opacity="0"/><stop offset="1" stop-color="#fff" stop-opacity="1"/></linearGradient><linearGradient id="g3" x2="1" href="#P" gradientTransform="matrix(-60.505,-14.218,17.458,-74.295,86.516,112.033)"><stop offset=".25" stop-color="#fff" stop-opacity="0"/><stop offset="1" stop-color="#fff" stop-opacity="1"/></linearGradient></defs><style>.a{opacity:.1;mix-blend-mode:screen;fill:#fff}.b{fill:#977f59}.c{fill:#ab987a}.d{opacity:.4;mix-blend-mode:screen;fill:url(#g1)}.e{opacity:.3;mix-blend-mode:screen;fill:url(#g2)}.f{opacity:.6;mix-blend-mode:screen;fill:url(#g3)}.g{opacity:.4;mix-blend-mode:multiply;fill:#977f59}</style><path class="a" d="m171.6 86.3c0 47.3-38.3 85.6-85.6 85.6-47.3 0-85.6-38.3-85.6-85.6 0-47.2 38.3-85.5 85.6-85.5 47.3 0 85.6 38.3 85.6 85.5z"/><path class="a" d="m161.6 86.3c0 41.8-33.9 75.6-75.6 75.6-41.8 0-75.6-33.8-75.6-75.6 0-41.7 33.8-75.5 75.6-75.5 41.7 0 75.6 33.8 75.6 75.5z"/><path class="b" d="m152.1 86.7c0 36.5-29.6 66.2-66.1 66.2-36.5 0-66.1-29.7-66.1-66.2 0-36.5 29.6-66.1 66.1-66.1 36.5 0 66.1 29.6 66.1 66.1z"/><path class="c" d="m84.9 119q2.6-1.3 5.1-2.9c1-0.6 2.1-1.4 2.2-2.5 0-0.9-0.5-1.6-1-2.4-4.4-6.1-12.6-11.9-13.5-19.9-0.8-7.3 5.1-13.4 8.4-19.3 4.9-9 3.5-21.1-0.2-30.3-1.8-4.5-13.2-20.1-19.5-18.1-27 8.3-46.5 33.4-46.5 63.1 0 18.5 7.6 35.3 19.8 47.3 14.9-5.6 31-7.8 45.2-15z"/><path class="c" d="m152 86.7c-0.1-14.5-4.9-29-13.8-40.4-8.9 6.6-12.5 19.3-8.5 29.6 2.2 5.6 6.5 11.3 4.5 17-1.8 5.3-8 7.4-13.3 9-8.3 2.6-12.6 7-13.8 15.4-0.4 2.8 1.7 31 1.9 30.9 19.3-7 34.8-23.7 40.5-43.5 1.7-5.8 2.5-11.9 2.5-18z"/><path class="d" d="m30.5 110.1c-16.8-18.6-11.2-51.1 12.6-72.6 23.8-21.4 56.8-23.7 73.6-5 16.8 18.6 11.1 51.1-12.7 72.6-23.8 21.4-56.7 23.7-73.5 5z"/><path class="e" d="m46.9 79.3c-11-12.2-7.3-33.4 8.2-47.3 15.5-14 36.9-15.5 47.9-3.3 10.9 12.1 7.2 33.3-8.3 47.3-15.4 13.9-36.9 15.4-47.8 3.3z"/><path class="f" d="m63.5 116.8c-11.9 0.5-22.1-11.3-22.8-26.5-0.8-15.2 8.3-28 20.2-28.5 11.9-0.6 22.2 11.3 22.9 26.4 0.7 15.2-8.4 28-20.3 28.6z"/><path class="g" d="m119.9 30c9.2 11.3 14.7 25.8 14.7 41.5 0 36.6-29.6 66.2-66.1 66.2-12.4 0-24-3.4-33.9-9.4 12.1 15 30.6 24.6 51.4 24.6 36.5 0 66.1-29.7 66.1-66.2 0-24.1-12.9-45.2-32.2-56.7z"/></svg>